<svg xmlns="http://www.w3.org/2000/svg" viewBox="0 0 128 128" width="128" height="128">
  <path d="M25.5 44.0 L26.4 44.0 L27.2 44.0 L28.1 44.0 L28.9 44.0 L29.8 44.0 L30.6 44.0 L31.5 44.0 L32.3 44.0 L33.2 44.0 L34.1 44.0 L34.9 53.1 L35.8 54.6 L36.6 56.0 L37.5 57.3 L38.3 58.6 L39.2 59.9 L40.0 61.1 L40.9 62.3 L41.8 63.4 L42.6 64.5 L43.5 65.6 L44.3 66.6 L45.2 67.6 L46.0 68.5 L46.9 69.4 L47.7 70.2 L48.6 71.0 L49.5 71.8 L50.3 72.5 L51.2 73.2 L52.0 73.8 L52.9 74.4 L53.7 74.9 L54.6 75.4 L55.4 75.8 L56.3 76.3 L57.2 76.6 L58.0 76.9 L58.9 77.2 L59.7 77.5 L60.6 77.7 L61.4 77.8 L62.3 77.9 L63.1 78.0 L64.0 78.0 L64.9 78.0 L65.7 77.9 L66.6 77.8 L67.4 77.7 L68.3 77.5 L69.1 77.2 L70.0 76.9 L70.8 76.6 L71.7 76.3 L72.6 75.8 L73.4 75.4 L74.3 74.9 L75.1 74.4 L76.0 73.8 L76.8 73.2 L77.7 72.5 L78.5 71.8 L79.4 71.0 L80.3 70.2 L81.1 69.4 L82.0 68.5 L82.8 67.6 L83.7 66.6 L84.5 65.6 L85.4 64.5 L86.2 63.4 L87.1 62.3 L88.0 61.1 L88.8 59.9 L89.7 58.6 L90.5 57.3 L91.4 56.0 L92.2 54.6 L93.1 53.1 L93.9 44.0 L94.8 44.0 L95.7 44.0 L96.5 44.0 L97.4 44.0 L98.2 44.0 L99.1 44.0 L99.9 44.0 L100.8 44.0 L101.6 44.0 L102.5 44.0" fill="none" stroke="#E8420B" stroke-width="7" stroke-linecap="round" stroke-linejoin="round"/>
  <line x1="44" y1="66.2" x2="44" y2="94" stroke="#E8420B" stroke-width="3.9"/>
  <line x1="56" y1="76.1" x2="56" y2="94" stroke="#E8420B" stroke-width="3.9"/>
  <line x1="64" y1="78.0" x2="64" y2="94" stroke="#E8420B" stroke-width="3.9"/>
  <line x1="72" y1="76.1" x2="72" y2="94" stroke="#E8420B" stroke-width="3.9"/>
  <line x1="84" y1="66.2" x2="84" y2="94" stroke="#E8420B" stroke-width="3.9"/>
  <rect x="25.5" y="26" width="9" height="79.0" fill="#E8420B"/>
  <rect x="19.0" y="58" width="22" height="6.5" fill="#E8420B"/>
  <rect x="93.5" y="26" width="9" height="79.0" fill="#E8420B"/>
  <rect x="87.0" y="58" width="22" height="6.5" fill="#E8420B"/>
  <rect x="0" y="94" width="128" height="11" fill="#E8420B"/>
</svg>
